<svg width="119" height="23" viewBox="0 0 119 23" fill="none" xmlns="http://www.w3.org/2000/svg">
<path d="M16.2337 0.759998L15.7218 3.608H9.80175L6.37775 23H2.72975L6.15375 3.608H0.201749L0.713749 0.759998H16.2337ZM29.3683 0.759998C31.6083 0.759998 33.3043 1.26133 34.4563 2.264C35.6083 3.26667 36.1843 4.568 36.1843 6.168C36.1843 6.44533 36.1416 6.86133 36.0563 7.416C35.8003 8.84533 35.1389 10.1573 34.0723 11.352C33.0269 12.5467 31.5976 13.3573 29.7843 13.784L33.6563 23H29.3043L25.7843 14.104H22.9683L21.4003 23H17.7523L21.6883 0.759998H29.3683ZM32.3123 7.416C32.3763 7.096 32.4083 6.78667 32.4083 6.488C32.4083 5.57067 32.1096 4.86667 31.5123 4.376C30.9363 3.864 30.0509 3.608 28.8563 3.608H24.8243L23.4803 11.224H27.5123C28.8776 11.224 29.9656 10.8827 30.7763 10.2C31.6083 9.51733 32.1203 8.58933 32.3123 7.416ZM53.939 18.456H44.627L42.227 23H38.419L50.323 0.727999H54.547L58.579 23H54.739L53.939 18.456ZM53.459 15.608L51.635 5.144L46.131 15.608H53.459ZM69.8515 0.759998L73.1475 19.224L83.0355 0.759998H86.9075L74.6195 23H70.3955L65.9475 0.759998H69.8515ZM94.8542 3.576L93.6702 10.328H101.35L100.87 13.144H93.1902L91.9422 20.152H100.582L100.07 23H87.7822L91.7182 0.727999H104.006L103.494 3.576H94.8542ZM110.484 20.216H118.004L117.492 23H106.324L110.26 0.759998H113.908L110.484 20.216Z" fill="white"/>
</svg>
