<svg width="60" height="12" viewBox="0 0 60 12" fill="none" xmlns="http://www.w3.org/2000/svg">
<path d="M8.52 0.879999L8.264 2.304H5.304L3.592 12H1.768L3.48 2.304H0.504L0.76 0.879999H8.52ZM15.0873 0.879999C16.2073 0.879999 17.0553 1.13067 17.6313 1.632C18.2073 2.13333 18.4953 2.784 18.4953 3.584C18.4953 3.72267 18.4739 3.93067 18.4313 4.208C18.3033 4.92267 17.9726 5.57867 17.4393 6.176C16.9166 6.77333 16.2019 7.17867 15.2953 7.392L17.2313 12H15.0553L13.2953 7.552H11.8873L11.1033 12H9.27925L11.2473 0.879999H15.0873ZM16.5593 4.208C16.5913 4.048 16.6073 3.89333 16.6073 3.744C16.6073 3.28533 16.4579 2.93333 16.1593 2.688C15.8713 2.432 15.4286 2.304 14.8313 2.304H12.8153L12.1433 6.112H14.1593C14.8419 6.112 15.3859 5.94133 15.7913 5.6C16.2073 5.25867 16.4633 4.79467 16.5593 4.208ZM27.3726 9.728H22.7166L21.5166 12H19.6126L25.5646 0.863999H27.6766L29.6926 12H27.7726L27.3726 9.728ZM27.1326 8.304L26.2206 3.072L23.4686 8.304H27.1326ZM35.3289 0.879999L36.9769 10.112L41.9209 0.879999H43.8569L37.7129 12H35.6009L33.3769 0.879999H35.3289ZM47.8303 2.288L47.2383 5.664H51.0783L50.8383 7.072H46.9983L46.3743 10.576H50.6943L50.4383 12H44.2943L46.2623 0.863999H52.4063L52.1503 2.288H47.8303ZM55.6449 10.608H59.4049L59.1489 12H53.5649L55.5329 0.879999H57.3569L55.6449 10.608Z" fill="#FE8C00"/>
</svg>
